#!OML:ASF X:\für Bonn\!DataBase\2005_08_11_Bastian_Final\c3d\Bastian.ASF
:FULLY-SPECIFIED
:DEGREES
159
root -21.7549 17.5908 0.31291 133.124 -78.4715 -138.86
lowerback 3.8303 3.22371 3.76145
upperback 3.78516 4.31395 -2.07418
thorax 2.20529 2.245 -4.31175
lowerneck -8.79353 -7.75102 1.50177
upperneck 8.64184 -12.3315 12.222
head 4.75571 -5.4831 2.63261
rclavicle -5.53615e-014 -2.38542e-014
rhumerus 44.3898 0.0133283 -56.4881
rradius 61.4468
rwrist -24.6639
rhand -23.0443 -1.83318
rfingers 7.12502
rthumb 3.40028 -31.7858
lclavicle -5.53615e-014 -2.38542e-014
lhumerus -24.3258 -15.2406 87.3973
lradius 13.2994
lwrist 14.0443
lhand -10.5894 -4.36094
lfingers 7.12502
lthumb 15.416 25.0442
rfemur -1.63611 1.59711 23.7701
rtibia 29.0499
rfoot -11.473 -9.72863
rtoes -15.2199
lfemur 0.56709 5.19531 -14.0153
ltibia 25.1361
lfoot -12.2653 -2.17347
ltoes -6.49201
160
root -21.7467 17.5914 0.318743 133.19 -78.4606 -138.956
lowerback 3.74802 3.10004 3.55959
upperback 3.83041 4.14047 -1.971
thorax 2.25587 2.15289 -4.08467
lowerneck -8.44001 -7.70743 1.52889
upperneck 9.22963 -12.3721 12.3383
head 4.88638 -5.48213 2.66462
rclavicle -7.85199e-015 -7.95139e-015
rhumerus 43.1431 0.369367 -56.9785
rradius 63.301
rwrist -25.0567
rhand -22.9122 -1.82022
rfingers 7.12502
rthumb 3.52789 -31.7708
lclavicle -7.85199e-015 -7.95139e-015
lhumerus -24.0323 -14.9498 87.418
lradius 13.2832
lwrist 13.702
lhand -10.6953 -4.54815
lfingers 7.12502
lthumb 15.314 24.8649
rfemur -1.74205 1.38531 23.7228
rtibia 29.244
rfoot -11.4533 -9.6622
rtoes -15.3118
lfemur 0.598836 5.23267 -14.0269
ltibia 25.0742
lfoot -12.1991 -2.21211
ltoes -6.13784
161
root -21.7385 17.5922 0.324138 133.254 -78.4474 -139.055
lowerback 3.67467 2.96229 3.35112
upperback 3.87297 3.94858 -1.85966
thorax 2.29778 2.05092 -3.84638
lowerneck -8.05407 -7.64927 1.53768
upperneck 9.80225 -12.3907 12.4586
head 5.00694 -5.47353 2.7046
rclavicle -4.77083e-015 6.36111e-015
rhumerus 41.8296 0.838653 -57.4026
rradius 65.2237
rwrist -25.7134
rhand -22.8327 -1.76999
rfingers 7.12502
rthumb 3.6047 -31.7193
lclavicle -4.77083e-015 6.36111e-015
lhumerus -23.7669 -14.6081 87.4238
lradius 13.2704
lwrist 13.3199
lhand -10.8236 -4.75486
lfingers 7.12502
lthumb 15.1904 24.6675
rfemur -1.84316 1.19788 23.6835
rtibia 29.4558
rfoot -11.454 -9.62115
rtoes -15.2917
lfemur 0.629929 5.29648 -14.0328
ltibia 25.0179
lfoot -12.1422 -2.25903
ltoes -5.94043
162
root -21.7301 17.5928 0.329385 133.544 -78.4475 -139.378
lowerback 3.59561 2.83719 3.10111
upperback 3.91604 3.7729 -1.76743
thorax 2.34554 1.95612 -3.60472
lowerneck -7.66687 -7.59055 1.59844
upperneck 10.3554 -12.4118 12.5533
head 5.11681 -5.46765 2.72957
rclavicle -7.97127e-014 -1.11319e-014
rhumerus 40.4699 1.30337 -57.8277
rradius 67.1443
rwrist -26.3387
rhand -22.7048 -1.85863
rfingers 7.12502
rthumb 3.72822 -31.8058
lclavicle -7.97127e-014 -1.11319e-014
lhumerus -23.5089 -14.3482 87.4319
lradius 13.2818
lwrist 13.072
lhand -10.9494 -4.9625
lfingers 7.12502
lthumb 15.0692 24.469
rfemur -1.95935 1.00407 23.5922
rtibia 29.6829
rfoot -11.4634 -9.55207
rtoes -15.1731
lfemur 0.651551 5.37951 -14.0853
ltibia 24.9707
lfoot -12.076 -2.31519
ltoes -5.61821
163
root -21.7214 17.5934 0.334939 133.713 -78.4219 -139.58
lowerback 3.54353 2.7092 2.90177
upperback 3.94163 3.59586 -1.67859
thorax 2.36586 1.86137 -3.39718
lowerneck -7.24945 -7.5346 1.70883
upperneck 10.8898 -12.4361 12.6142
head 5.21084 -5.46639 2.73846
rclavicle 2.70347e-014 -3.97569e-014
rhumerus 39.0457 1.76658 -58.2826
rradius 69.0542
rwrist -26.9132
rhand -22.5298 -2.07353
rfingers 7.12502
rthumb 3.89714 -32.0176
lclavicle 2.70347e-014 -3.97569e-014
lhumerus -23.3041 -14.2396 87.4464
lradius 13.3002
lwrist 12.9712
lhand -11.0953 -5.2482
lfingers 7.12502
lthumb 14.9287 24.1938
rfemur -2.08283 0.739146 23.5336
rtibia 29.9276
rfoot -11.4677 -9.45415
rtoes -15.0128
lfemur 0.670099 5.48832 -14.0911
ltibia 24.9343
lfoot -12.0128 -2.38109
ltoes -5.46227
164
root -21.7124 17.5932 0.33963 133.956 -78.3977 -139.863
lowerback 3.48536 2.58417 2.68697
upperback 3.9854 3.42191 -1.58964
thorax 2.40958 1.76804 -3.18029
lowerneck -6.82111 -7.48392 1.82733
upperneck 11.3633 -12.454 12.645
head 5.28117 -5.46712 2.73926
rclavicle 1.16289e-014 2.38542e-014
rhumerus 37.6064 2.23123 -58.7479
rradius 70.9552
rwrist -27.4697
rhand -22.3901 -2.44837
rfingers 7.12502
rthumb 4.03203 -32.39
lclavicle 1.16289e-014 2.38542e-014
lhumerus -23.0851 -14.1953 87.4624
lradius 13.3196
lwrist 12.9213
lhand -11.2563 -5.53878
lfingers 7.12502
lthumb 14.7736 23.9147
rfemur -2.20489 0.506992 23.477
rtibia 30.1936
rfoot -11.455 -9.40572
rtoes -14.9157
lfemur 0.696533 5.55567 -14.1148
ltibia 24.902
lfoot -11.9737 -2.41794
ltoes -5.11124
165
root -21.7036 17.5924 0.344301 134.152 -78.3539 -140.103
lowerback 3.44274 2.46007 2.48818
upperback 4.01456 3.25037 -1.49176
thorax 2.43198 1.67576 -2.96453
lowerneck -6.36789 -7.42934 1.95786
upperneck 11.8181 -12.4605 12.6515
head 5.33845 -5.46558 2.73334
rclavicle 4.67144e-015 8.26944e-014
rhumerus 36.075 2.70861 -59.2636
rradius 72.8488
rwrist -28.002
rhand -22.2334 -2.91469
rfingers 7.12502
rthumb 4.18337 -32.8534
lclavicle 4.67144e-015 8.26944e-014
lhumerus -22.9222 -14.2524 87.4954
lradius 13.3618
lwrist 12.9743
lhand -11.3766 -5.83517
lfingers 7.12502
lthumb 14.6577 23.6268
rfemur -2.31837 0.214118 23.4303
rtibia 30.4659
rfoot -11.4679 -9.30946
rtoes -14.6192
lfemur 0.717997 5.67752 -14.1081
ltibia 24.8934
lfoot -11.9373 -2.49151
ltoes -4.95704
166
root -21.6941 17.5922 0.348348 134.363 -78.3332 -140.356
lowerback 3.39531 2.32849 2.28406
upperback 4.05652 3.06857 -1.41057
thorax 2.47225 1.57855 -2.76258
lowerneck -5.91842 -7.40461 2.12072
upperneck 12.2463 -12.4985 12.6055
head 5.38465 -5.48235 2.70448
rclavicle 4.49253e-014 -2.54444e-014
rhumerus 34.5432 3.17434 -59.8369
rradius 74.6633
rwrist -28.5152
rhand -22.0531 -3.3704
rfingers 7.12502
rthumb 4.35753 -33.3056
lclavicle 4.49253e-014 -2.54444e-014
lhumerus -22.7391 -14.3218 87.5039
lradius 13.4147
lwrist 13.0081
lhand -11.4897 -6.06327
lfingers 7.12502
lthumb 14.5487 23.4065
rfemur -2.44916 -0.116756 23.3734
rtibia 30.7618
rfoot -11.4584 -9.25967
rtoes -14.5217
lfemur 0.728722 5.79441 -14.1185
ltibia 24.8842
lfoot -11.8841 -2.56884
ltoes -4.67554
167
root -21.6855 17.5916 0.353249 134.493 -78.2671 -140.525
lowerback 3.36352 2.21231 2.16219
upperback 4.07454 2.90999 -1.34115
thorax 2.48747 1.49505 -2.62028
lowerneck -5.46798 -7.36714 2.34913
upperneck 12.6985 -12.5258 12.5279
head 5.43207 -5.49229 2.65663
rclavicle -9.74045e-015 -3.18055e-014
rhumerus 32.8893 3.60272 -60.5295
rradius 76.4102
rwrist -28.8952
rhand -21.7582 -3.76079
rfingers 7.12502
rthumb 4.64222 -33.6899
lclavicle -9.74045e-015 -3.18055e-014
lhumerus -22.6131 -14.3418 87.4761
lradius 13.4864
lwrist 12.9707
lhand -11.5829 -6.27913
lfingers 7.12502
lthumb 14.4589 23.1971
rfemur -2.57666 -0.457873 23.3584
rtibia 31.0706
rfoot -11.483 -9.19012
rtoes -14.2089
lfemur 0.742601 5.91857 -14.0849
ltibia 24.8896
lfoot -11.8592 -2.63396
ltoes -4.53748
168
root -21.6764 17.5909 0.356626 134.746 -78.2247 -140.816
lowerback 3.32739 2.08914 1.97983
upperback 4.09572 2.74099 -1.2719
thorax 2.50576 1.40462 -2.4441
lowerneck -5.01744 -7.33569 2.54708
upperneck 13.1541 -12.56 12.4574
head 5.48335 -5.50651 2.61525
rclavicle 2.19657e-014 4.77083e-015
rhumerus 31.2052 4.05007 -61.229
rradius 78.0821
rwrist -29.2704
rhand -21.3432 -4.00695
rfingers 7.12502
rthumb 5.04294 -33.9269
lclavicle 2.19657e-014 4.77083e-015
lhumerus -22.4727 -14.2561 87.4103
lradius 13.5489
lwrist 12.8143
lhand -11.6217 -6.46369
lfingers 7.12502
lthumb 14.4215 23.0153
rfemur -2.70956 -0.806251 23.3203
rtibia 31.3938
rfoot -11.4904 -9.17058
rtoes -14.0353
lfemur 0.746218 5.99878 -14.0951
ltibia 24.9038
lfoot -11.8299 -2.6741
ltoes -4.30463
169
root -21.6668 17.5894 0.360528 134.984 -78.1935 -141.091
lowerback 3.3099 1.96486 1.82465
upperback 4.10292 2.5718 -1.21673
thorax 2.50271 1.31481 -2.2987
lowerneck -4.53934 -7.30799 2.78753
upperneck 13.5893 -12.5872 12.3287
head 5.51702 -5.52097 2.5518
rclavicle 1.59028e-014 -1.59028e-014
rhumerus 29.4504 4.48274 -61.9501
rradius 79.6587
rwrist -29.591
rhand -20.796 -4.09363
rfingers 7.12502
rthumb 5.57127 -34.0004
lclavicle 1.59028e-014 -1.59028e-014
lhumerus -22.378 -14.304 87.3663
lradius 13.6162
lwrist 12.8027
lhand -11.6405 -6.65921
lfingers 7.12502
lthumb 14.4034 22.821
rfemur -2.84386 -1.22267 23.2674
rtibia 31.7245
rfoot -11.5066 -9.12117
rtoes -13.9519
lfemur 0.73781 6.13372 -14.1001
ltibia 24.9301
lfoot -11.7929 -2.76201
ltoes -4.01177
170
root -21.6574 17.5875 0.364558 135.134 -78.111 -141.29
lowerback 3.28973 1.83657 1.6991
upperback 4.13115 2.39662 -1.1203
thorax 2.5234 1.22239 -2.12687
lowerneck -4.08793 -7.27866 2.9358
upperneck 14.0223 -12.6083 12.2298
head 5.56152 -5.53354 2.51109
rclavicle 2.69353e-014 -3.18055e-014
rhumerus 27.6968 4.96007 -62.6385
rradius 81.171
rwrist -30.005
rhand -20.2309 -4.11325
rfingers 7.12502
rthumb 6.11689 -34.0049
lclavicle 2.69353e-014 -3.18055e-014
lhumerus -22.2843 -14.2634 87.3497
lradius 13.685
lwrist 12.7267
lhand -11.6713 -6.82622
lfingers 7.12502
lthumb 14.3738 22.6561
rfemur -2.96609 -1.61652 23.2736
rtibia 32.0745
rfoot -11.5158 -9.11789
rtoes -13.8165
lfemur 0.750982 6.27391 -14.0535
ltibia 24.9577
lfoot -11.7893 -2.83837
ltoes -3.88396
171
root -21.6482 17.5866 0.368534 135.439 -78.0555 -141.631
lowerback 3.2476 1.68971 1.50491
upperback 4.16364 2.19497 -0.983041
thorax 2.5564 1.11428 -1.8738
lowerneck -3.66884 -7.24291 2.97913
upperneck 14.4547 -12.5997 12.0813
head 5.61204 -5.53648 2.47229
rclavicle -4.63168e-014 1.11319e-014
rhumerus 25.9321 5.57669 -63.2403
rradius 82.6526
rwrist -30.6561
rhand -19.799 -3.95637
rfingers 7.12502
rthumb 6.53382 -33.8356
lclavicle -4.63168e-014 1.11319e-014
lhumerus -22.1709 -14.0242 87.3653
lradius 13.7087
lwrist 12.5252
lhand -11.6702 -7.00292
lfingers 7.12502
lthumb 14.3748 22.4794
rfemur -3.10259 -2.04426 23.23
rtibia 32.4269
rfoot -11.5292 -9.10267
rtoes -13.7877
lfemur 0.7426 6.36024 -14.0678
ltibia 24.9986
lfoot -11.7816 -2.85009
ltoes -3.72487
172
root -21.6397 17.5843 0.372394 135.779 -77.9916 -142.007
lowerback 3.19982 1.55233 1.32287
upperback 4.20104 2.00601 -0.849988
thorax 2.60127 1.01284 -1.63194
lowerneck -3.2668 -7.23005 2.99743
upperneck 14.8679 -12.6257 11.9656
head 5.66522 -5.5566 2.44444
rclavicle -1.89839e-014 3.33958e-014
rhumerus 24.095 6.22079 -63.8583
rradius 84.0812
rwrist -31.5155
rhand -19.4447 -3.60082
rfingers 7.12502
rthumb 6.87585 -33.4692
lclavicle -1.89839e-014 3.33958e-014
lhumerus -22.0794 -13.7683 87.377
lradius 13.728
lwrist 12.2376
lhand -11.7071 -7.21788
lfingers 7.12502
lthumb 14.3392 22.2669
rfemur -3.22506 -2.47703 23.1878
rtibia 32.7817
rfoot -11.5571 -9.10027
rtoes -13.7933
lfemur 0.728759 6.51626 -14.0675
ltibia 25.0551
lfoot -11.771 -2.92515
ltoes -3.45902
173
root -21.6307 17.5817 0.376371 136.022 -77.914 -142.293
lowerback 3.16868 1.41656 1.18007
upperback 4.23625 1.81986 -0.720167
thorax 2.63835 0.913731 -1.41614
lowerneck -2.8797 -7.22141 3.0527
upperneck 15.272 -12.6541 11.8156
head 5.71422 -5.57823 2.39974
rclavicle -1.40143e-014 -3.18055e-015
rhumerus 22.1548 6.85363 -64.525
rradius 85.4611
rwrist -32.417
rhand -19.0541 -3.09379
rfingers 7.12502
rthumb 7.25289 -32.9495
lclavicle -1.40143e-014 -3.18055e-015
lhumerus -22.0786 -13.7518 87.4434
lradius 13.833
lwrist 12.1785
lhand -11.7622 -7.47386
lfingers 7.12502
lthumb 14.2862 22.0147
rfemur -3.32997 -2.90112 23.1699
rtibia 33.1381
rfoot -11.5846 -9.11666
rtoes -13.6936
lfemur 0.721474 6.59663 -14.0582
ltibia 25.1187
lfoot -11.7733 -2.94703
ltoes -3.20166
